<svg width="132" height="132" viewBox="0 0 132 132" fill="none" xmlns="http://www.w3.org/2000/svg">
<rect width="132" height="132" rx="66" fill="#DAE0F0"/>
<path d="M99.3601 54.5634L97.9985 55.3475C94.2454 57.5087 92.6097 61.66 92.6097 65.4849C92.6097 69.3098 94.2454 73.4611 97.9985 75.6223L99.3774 76.4163C97.8452 81.0735 95.3642 85.296 92.1614 88.8551L90.8029 88.0729C87.0524 85.9132 82.6405 86.5655 79.3223 88.4778C75.9921 90.3971 73.2116 93.9017 73.2116 98.2442V99.7664C68.5881 100.722 63.6457 100.767 58.8022 99.7664V98.2444C58.8022 93.8973 56.0004 90.4025 52.6815 88.4899C49.3711 86.5823 44.9622 85.9128 41.2079 88.0746L39.8534 88.8546C36.6506 85.2826 34.1707 81.0618 32.6386 76.4214L34.0002 75.6374C37.7533 73.4762 39.389 69.3249 39.389 65.5C39.389 61.6751 37.7533 57.5238 34.0002 55.3626L32.6382 54.5783C34.1705 49.9234 36.6507 45.703 39.8521 42.1453L41.1938 42.9197C44.9439 45.0843 49.3588 44.4337 52.6787 42.5209C56.0078 40.6027 58.7871 37.0994 58.7871 32.7587V31.2336C63.4105 30.2783 68.353 30.2329 73.1965 31.2336V32.7405C73.1965 37.0876 75.9982 40.5824 79.3172 42.495C82.6275 44.4026 87.0365 45.0721 90.7908 42.9103L92.1453 42.1303C95.3481 45.7022 97.828 49.923 99.3601 54.5634ZM51.3609 65.4849C51.3609 73.5406 57.9305 80.0816 65.9918 80.0816C74.053 80.0816 80.6227 73.5406 80.6227 65.4849C80.6227 57.4292 74.053 50.8881 65.9918 50.8881C57.9305 50.8881 51.3609 57.4292 51.3609 65.4849Z" fill="#7DA2FF" stroke="#7DA2FF" stroke-width="5"/>
</svg>
