<svg width="240" height="240" viewBox="0 0 240 240" fill="none" xmlns="http://www.w3.org/2000/svg">
<rect width="240" height="240" rx="120" fill="#90CAF9"/>
<path fill-rule="evenodd" clip-rule="evenodd" d="M190.848 216.708C170.956 231.349 146.383 240 119.789 240C93.3156 240 68.8444 231.427 49 216.906C60.0927 188.557 87.683 168.478 119.963 168.478C152.168 168.478 179.705 188.464 190.848 216.708ZM68.8331 87.0869C68.8331 59.4247 91.2578 37 118.92 37C146.513 37 168.895 59.3128 169.007 86.8797V85C178.227 85 185.702 92.4749 185.702 101.696V103.783C185.702 113.003 178.227 120.478 169.007 120.478V118.599C168.895 146.165 146.513 168.478 118.92 168.478C91.2578 168.478 68.8331 146.054 68.8331 118.391V87.0869ZM68.8329 85C59.6122 85 52.1373 92.4749 52.1373 101.696V103.783C52.1373 113.003 59.6122 120.478 68.8329 120.478V85Z" fill="#3F51B5"/>
</svg>
